HIERARCHY
ROOT Hips
{
	OFFSET 0.000000 0.000000 0.000000
	CHANNELS 6 Xposition Yposition Zposition Xrotation Yrotation Zrotation
	JOINT LeftUpLeg_virtual
	{
		OFFSET 0.000000 0.000000 0.000000
		CHANNELS 3 Xrotation Yrotation Zrotation
		JOINT LeftUpLeg
		{
			OFFSET 10.205400 -3.823500 0.155100
			CHANNELS 3 Xrotation Yrotation Zrotation
			JOINT LeftLeg
			{
				OFFSET 0.708757 -12.982077 0.567790
				CHANNELS 3 Xrotation Yrotation Zrotation
				JOINT LeftFoot
				{
					OFFSET -0.708756 -10.717838 -2.184338
					CHANNELS 3 Xrotation Yrotation Zrotation
					JOINT LeftToeBase
					{
						OFFSET 0.108149 -7.191104 7.560241
						CHANNELS 3 Xrotation Yrotation Zrotation
						JOINT LeftToe_End
						{
							OFFSET 0.070230 0.081724 4.490308
							CHANNELS 3 Xrotation Yrotation Zrotation
							End Site
							{
								OFFSET 0 0 0
							}
						}
					}
				}
			}
		}
	}
	JOINT RightUpLeg_virtual
	{
		OFFSET 0.000000 0.000000 0.000000
		CHANNELS 3 Xrotation Yrotation Zrotation
		JOINT RightUpLeg
		{
			OFFSET -10.205400 -3.823500 0.005500
			CHANNELS 3 Xrotation Yrotation Zrotation
			JOINT RightLeg
			{
				OFFSET -0.708756 -12.982134 0.610632
				CHANNELS 3 Xrotation Yrotation Zrotation
				JOINT RightFoot
				{
					OFFSET 0.708754 -10.717769 -1.945823
					CHANNELS 3 Xrotation Yrotation Zrotation
					JOINT RightToeBase
					{
						OFFSET -0.108140 -7.191069 7.372968
						CHANNELS 3 Xrotation Yrotation Zrotation
						JOINT RightToe_End
						{
							OFFSET -0.070227 0.081735 4.479403
							CHANNELS 3 Xrotation Yrotation Zrotation
							End Site
							{
								OFFSET 0 0 0
							}
						}
					}
				}
			}
		}
	}
	JOINT Spine_virtual
	{
		OFFSET 0.000000 0.000000 0.000000
		CHANNELS 3 Xrotation Yrotation Zrotation
		JOINT Spine
		{
			OFFSET 0.000000 6.876099 0.125700
			CHANNELS 3 Xrotation Yrotation Zrotation
			JOINT Spine1
			{
				OFFSET 0.000000 5.730043 0.104720
				CHANNELS 3 Xrotation Yrotation Zrotation
				JOINT Spine1_split
				{
					OFFSET 0.000000 5.730043 0.104720
					CHANNELS 3 Xrotation Yrotation Zrotation
					JOINT Spine2
					{
						OFFSET 0.000000 5.730043 0.104720
						CHANNELS 3 Xrotation Yrotation Zrotation
						JOINT Neck_virtual
						{
							OFFSET 0.000000 0.000000 0.000000
							CHANNELS 3 Xrotation Yrotation Zrotation
							JOINT Neck
							{
								OFFSET 0.000000 10.314075 0.188496
								CHANNELS 3 Xrotation Yrotation Zrotation
								JOINT Head
								{
									OFFSET 0.000000 7.643700 -2.377400
									CHANNELS 3 Xrotation Yrotation Zrotation
									JOINT HeadTop_End
									{
										OFFSET 0.000000 43.788605 -13.619600
										CHANNELS 3 Xrotation Yrotation Zrotation
										End Site
										{
											OFFSET 0 0 0
										}
									}
								}
							}
						}
						JOINT LeftShoulder_virtual
						{
							OFFSET 0.000000 0.000000 0.000000
							CHANNELS 3 Xrotation Yrotation Zrotation
							JOINT LeftShoulder
							{
								OFFSET 2.196100 4.412489 0.087492
								CHANNELS 3 Xrotation Yrotation Zrotation
								JOINT LeftShoulder_split
								{
									OFFSET 2.196100 4.412489 0.087492
									CHANNELS 3 Xrotation Yrotation Zrotation
									JOINT LeftArm
									{
										OFFSET 8.771219 -2.981674 -0.026999
										CHANNELS 3 Xrotation Yrotation Zrotation
										JOINT LeftForeArm
										{
											OFFSET 8.512804 0.000000 -0.000000
											CHANNELS 3 Xrotation Yrotation Zrotation
											JOINT LeftHand
											{
												OFFSET 18.484802 0.000000 -0.000000
												CHANNELS 3 Xrotation Yrotation Zrotation
												End Site
												{
													OFFSET 0 0 0
												}
											}
										}
									}
								}
							}
						}
						JOINT RightShoulder_virtual
						{
							OFFSET 0.000000 0.000000 0.000000
							CHANNELS 3 Xrotation Yrotation Zrotation
							JOINT RightShoulder
							{
								OFFSET -2.196100 4.412496 0.070690
								CHANNELS 3 Xrotation Yrotation Zrotation
								JOINT RightShoulder_split
								{
									OFFSET -2.196100 4.412496 0.070690
									CHANNELS 3 Xrotation Yrotation Zrotation
									JOINT RightArm
									{
										OFFSET -8.771282 -2.981682 -0.094208
										CHANNELS 3 Xrotation Yrotation Zrotation
										JOINT RightForeArm
										{
											OFFSET -8.494598 0.000000 0.000000
											CHANNELS 3 Xrotation Yrotation Zrotation
											JOINT RightHand
											{
												OFFSET -18.483803 0.000000 0.000001
												CHANNELS 3 Xrotation Yrotation Zrotation
												End Site
												{
													OFFSET 0 0 0
												}
											}
										}
									}
								}
							}
						}
					}
				}
			}
		}
	}
}
MOTION
Frames: 10
Frame Time: 0.03333333
0.400002 32.923901 -1.294127 0.000000 0.000000 0.000000 -2.299325 5.215772 1.404725 -6.454223 8.002848 8.553442 26.993840 -2.452888 -3.735546 -22.987763 2.032532 -5.323045 -0.200484 0.263277 0.899941 0.000000 0.000000 0.000000 -2.569431 4.742313 1.050973 5.029959 -3.686006 -6.212182 20.389426 -7.122483 4.817740 -20.259787 -20.849356 2.500407 -1.998715 -0.215561 -0.622114 0.000000 0.000000 0.000000 -1.880360 3.600876 0.787094 -1.239545 -1.834364 -2.715317 0.857416 -0.187813 1.921263 1.566843 -1.184865 -0.130413 0.000000 0.000000 0.000000 0.204407 -0.113962 1.484524 7.449745 1.606346 -0.920739 -2.961413 0.416452 2.108010 0.000000 0.000000 0.000000 0.706592 0.287469 1.069370 6.722805 -24.893120 -5.945958 -0.631270 -2.219483 -1.646732 7.500167 4.938579 -79.678200 -2.317443 -16.381961 1.680659 0.000000 0.000000 0.000000 0.605534 0.239038 2.052416 1.954518 -5.946209 9.250544 0.853940 5.584200 -0.897333 6.779332 17.788073 73.156947 1.469713 15.020938 -0.645307 0.000000 0.000000 0.000000 
0.350154 32.915115 -1.344231 0.000000 0.000000 0.000000 -2.266323 5.344997 1.410208 -6.429866 8.149049 8.562829 26.984107 -2.499124 -3.804470 -23.055749 1.979748 -5.246562 -0.177607 0.260703 0.920330 0.000000 0.000000 0.000000 -2.520689 4.817620 1.057382 4.982824 -3.742651 -6.139782 20.482190 -7.218358 4.838786 -20.338019 -20.817384 2.346291 -1.891198 -0.187212 -0.645092 0.000000 0.000000 0.000000 -1.852635 3.442050 0.893248 -1.294643 -1.834236 -2.757979 0.807179 -0.213010 1.885459 1.517820 -1.172901 -0.123182 0.000000 0.000000 0.000000 0.201757 -0.108608 1.446893 7.562401 1.649072 -1.076307 -2.917190 0.552405 1.972258 0.000000 0.000000 0.000000 0.683438 0.269938 1.041902 6.773836 -24.893856 -5.979799 -0.590874 -2.014971 -1.872693 7.384718 4.665400 -79.818950 -2.336321 -16.602296 1.657451 0.000000 0.000000 0.000000 0.574665 0.229627 2.066576 1.924452 -5.956119 9.232177 0.765923 5.898972 -0.958292 6.979954 17.669817 73.110891 1.523931 14.985775 -0.714137 0.000000 0.000000 0.000000 
0.294712 32.897984 -1.360344 0.000000 0.000000 0.000000 -2.290308 5.450985 1.401403 -6.365844 8.297369 8.600886 26.920403 -2.521600 -3.818273 -23.061898 1.969436 -5.192237 -0.183015 0.258683 0.919888 0.000000 0.000000 0.000000 -2.447823 4.858745 1.057223 4.905882 -3.669278 -6.140420 20.662398 -7.252311 4.903808 -20.065769 -20.771695 2.423662 -2.119302 -0.143327 -0.710202 0.000000 0.000000 0.000000 -1.859133 3.458815 0.987252 -1.323532 -1.806137 -2.781887 0.716251 -0.240074 1.840270 1.437823 -1.055543 -0.032661 0.000000 0.000000 0.000000 0.188188 -0.109780 1.422483 7.585775 1.690642 -1.297749 -2.926355 0.522096 1.879159 0.000000 0.000000 0.000000 0.635355 0.265946 1.030101 6.794918 -24.960884 -6.075166 -0.640813 -1.834865 -2.101952 7.503514 4.004184 -79.736257 -2.197904 -16.792309 1.648669 0.000000 0.000000 0.000000 0.543358 0.213113 2.051033 1.862342 -5.902329 9.289949 0.856690 6.100424 -1.092535 6.956241 17.685043 72.880413 1.525619 15.038623 -0.704206 0.000000 0.000000 0.000000 
0.247463 32.878925 -1.333324 0.000000 0.000000 0.000000 -2.356655 5.481079 1.368796 -6.273027 8.427262 8.666940 26.797250 -2.486345 -3.767568 -23.008602 1.988270 -5.159725 -0.206626 0.258863 0.897828 0.000000 0.000000 0.000000 -2.343499 4.909745 1.038978 4.856964 -3.512871 -6.171130 20.852829 -7.252345 4.980326 -19.642408 -20.704641 2.586758 -2.539932 -0.083995 -0.787902 0.000000 0.000000 0.000000 -1.858196 3.620604 1.038424 -1.306605 -1.771920 -2.784409 0.595010 -0.273772 1.794493 1.416714 -1.015765 0.132000 0.000000 0.000000 0.000000 0.161672 -0.116967 1.419428 7.543581 1.761572 -1.528957 -2.960942 0.334638 1.848348 0.000000 0.000000 0.000000 0.554736 0.267573 1.041178 6.791507 -25.079244 -6.172447 -0.730420 -1.637066 -2.348945 7.805358 3.135065 -79.392616 -1.943667 -16.946584 1.615772 0.000000 0.000000 0.000000 0.492567 0.180282 2.011481 1.774370 -5.786996 9.451128 1.088904 6.104685 -1.171606 6.767898 17.799623 72.552209 1.475368 15.263890 -0.629430 0.000000 0.000000 0.000000 
0.217135 32.865494 -1.275949 0.000000 0.000000 0.000000 -2.397693 5.455092 1.301928 -6.168470 8.483751 8.762616 26.638784 -2.381575 -3.637290 -22.921194 2.006884 -5.152856 -0.245700 0.261620 0.867861 0.000000 0.000000 0.000000 -2.229877 4.973869 0.988922 4.825771 -3.373822 -6.187115 21.040558 -7.286395 5.051622 -19.262426 -20.629613 2.664259 -2.877523 -0.009562 -0.853862 0.000000 0.000000 0.000000 -1.817554 3.816166 1.026307 -1.223510 -1.747562 -2.757255 0.457168 -0.316898 1.756434 1.464119 -1.057042 0.225324 0.000000 0.000000 0.000000 0.110965 -0.134459 1.438594 7.455717 1.853592 -1.708184 -3.019829 0.043370 1.878350 0.000000 0.000000 0.000000 0.451235 0.269069 1.074880 6.789416 -25.223682 -6.165865 -0.746782 -1.462351 -2.587225 8.230983 2.215458 -78.814769 -1.660424 -17.155499 1.517405 0.000000 0.000000 0.000000 0.407630 0.125644 1.957406 1.667306 -5.630838 9.688970 1.397290 5.953832 -1.208006 6.471150 17.993677 72.209668 1.390613 15.799474 -0.489940 0.000000 0.000000 0.000000 
0.205099 32.857510 -1.212500 0.000000 0.000000 0.000000 -2.380354 5.404241 1.198429 -6.053055 8.398796 8.862032 26.493889 -2.199250 -3.409849 -22.855439 1.995579 -5.158739 -0.283461 0.265692 0.842158 0.000000 0.000000 0.000000 -2.133331 5.024438 0.909224 4.762253 -3.340354 -6.170174 21.302435 -7.356430 5.129954 -18.991425 -20.545863 2.678054 -3.054799 0.070706 -0.899804 0.000000 0.000000 0.000000 -1.735991 3.959070 0.942360 -1.049239 -1.742690 -2.699978 0.316622 -0.372402 1.728917 1.597743 -1.110226 0.302944 0.000000 0.000000 0.000000 0.023610 -0.161453 1.471037 7.341459 1.967496 -1.810395 -3.071050 -0.310562 1.969689 0.000000 0.000000 0.000000 0.324883 0.267398 1.126418 6.809597 -25.371627 -5.989713 -0.624817 -1.338916 -2.775364 8.645034 1.384322 -78.109313 -1.402447 -17.396174 1.336622 0.000000 0.000000 0.000000 0.284992 0.057654 1.896890 1.552231 -5.456267 9.943831 1.790662 5.716281 -1.173014 6.108697 18.231774 71.932643 1.301256 16.640685 -0.300477 0.000000 0.000000 0.000000 
0.218805 32.848267 -1.162415 0.000000 0.000000 0.000000 -2.309574 5.336428 1.073817 -5.912500 8.125640 8.911705 26.427476 -1.926917 -3.090424 -22.889298 1.940324 -5.180237 -0.313145 0.273833 0.817790 0.000000 0.000000 0.000000 -2.092522 5.014339 0.808879 4.620442 -3.481452 -6.134301 21.739905 -7.392925 5.211212 -18.829170 -20.416132 2.777315 -3.267306 0.150772 -0.955496 0.000000 0.000000 0.000000 -1.630909 3.966956 0.806255 -0.759045 -1.764136 -2.617386 0.191266 -0.422889 1.716601 1.805788 -1.063379 0.270114 0.000000 0.000000 0.000000 -0.092956 -0.189316 1.505810 7.205188 2.093303 -1.821427 -3.074607 -0.687583 2.093762 0.000000 0.000000 0.000000 0.190781 0.266227 1.188130 6.860038 -25.460227 -5.633239 -0.375896 -1.274035 -2.914985 8.906272 0.696369 -77.440719 -1.181609 -17.728395 1.093211 0.000000 0.000000 0.000000 0.150833 -0.006247 1.833565 1.431875 -5.280955 10.165221 2.225892 5.466825 -1.111322 5.659338 18.422142 71.701277 1.233134 17.578935 -0.092081 0.000000 0.000000 0.000000 
0.251562 32.825424 -1.130726 0.000000 0.000000 0.000000 -2.221380 5.197917 0.964641 -5.752756 7.643485 8.872732 26.464859 -1.554633 -2.691102 -23.035740 1.851032 -5.238290 -0.346448 0.286342 0.790556 0.000000 0.000000 0.000000 -2.143824 4.911715 0.720703 4.397493 -3.789855 -6.100036 22.414760 -7.365415 5.275394 -18.844775 -20.207579 3.015714 -3.603248 0.230159 -1.040534 0.000000 0.000000 0.000000 -1.584405 3.781290 0.659720 -0.338017 -1.824400 -2.525219 0.089939 -0.452066 1.712594 1.968156 -0.904036 0.113096 0.000000 0.000000 0.000000 -0.239808 -0.218761 1.529987 7.067432 2.187405 -1.749559 -3.000701 -1.053929 2.219481 0.000000 0.000000 0.000000 0.068775 0.264800 1.239555 6.935029 -25.468478 -5.127253 -0.044244 -1.205673 -2.985836 8.884905 0.205737 -76.963965 -0.996047 -18.164799 0.828239 0.000000 0.000000 0.000000 0.043296 -0.043047 1.777090 1.313113 -5.097141 10.279513 2.532504 5.174683 -1.017714 5.054230 18.478845 71.403563 1.184694 18.358065 0.124739 0.000000 0.000000 0.000000 
0.294960 32.774887 -1.125271 0.000000 0.000000 0.000000 -2.162874 4.885928 0.922339 -5.579223 7.044672 8.717233 26.617975 -1.061529 -2.250718 -23.296710 1.732596 -5.350783 -0.379639 0.299758 0.754539 0.000000 0.000000 0.000000 -2.270300 4.664244 0.680261 4.090225 -4.234716 -6.096474 23.314209 -7.308846 5.306871 -19.141158 -19.880838 3.279204 -3.921887 0.310421 -1.137438 0.000000 0.000000 0.000000 -1.669490 3.396119 0.545016 0.212314 -1.951985 -2.461565 0.022327 -0.458411 1.704926 2.005397 -0.671797 -0.003466 0.000000 0.000000 0.000000 -0.387467 -0.246377 1.537370 6.963170 2.237885 -1.628308 -2.845809 -1.377329 2.320831 0.000000 0.000000 0.000000 -0.031107 0.259181 1.260820 7.016576 -25.400618 -4.560465 0.368490 -1.040467 -2.991491 8.541656 0.042580 -76.746089 -0.797982 -18.715347 0.590723 0.000000 0.000000 0.000000 -0.013535 -0.045887 1.728628 1.194974 -4.886168 10.240179 2.630882 4.915135 -0.785123 4.229729 18.251568 70.724198 1.153491 18.658118 0.333688 0.000000 0.000000 0.000000 
0.338964 32.703415 -1.132711 0.000000 0.000000 0.000000 -2.143114 4.285679 0.966875 -5.377040 6.450046 8.464845 26.892441 -0.450970 -1.812666 -23.612263 1.596582 -5.552293 -0.416537 0.311517 0.717427 0.000000 0.000000 0.000000 -2.443707 4.228950 0.709584 3.672679 -4.765206 -6.156466 24.377854 -7.264339 5.294132 -19.756145 -19.401043 3.446579 -4.117509 0.388783 -1.217326 0.000000 0.000000 0.000000 -1.909949 2.786190 0.484341 0.861809 -2.176300 -2.450191 -0.005673 -0.448831 1.686724 1.900528 -0.399070 -0.149830 0.000000 0.000000 0.000000 -0.508887 -0.279837 1.527757 6.940921 2.282841 -1.500513 -2.636956 -1.614534 2.386964 0.000000 0.000000 0.000000 -0.086518 0.240429 1.245487 7.104189 -25.298459 -4.001010 0.783492 -0.800638 -2.975201 7.980268 0.336327 -76.729109 -0.620795 -19.465267 0.409228 0.000000 0.000000 0.000000 0.002508 -0.030115 1.677412 1.064043 -4.629348 10.018422 2.563014 4.712616 -0.491739 3.155123 17.663614 69.244492 1.138968 18.390300 0.532417 0.000000 0.000000 0.000000 
